<mxfile host="app.diagrams.net" modified="2020-11-10T06:20:43.321Z" agent="5.0 (Macintosh; Intel Mac OS X 10_14_6) AppleWebKit/537.36 (KHTML, like Gecko) Chrome/86.0.4240.183 Safari/537.36" etag="cTo1D0MHN9QrSvIDbmC5" version="13.9.2" type="github">
  <diagram id="3wP3CYW0FM_uqGQw4saJ" name="Page-1">
    <mxGraphModel dx="1166" dy="706" grid="0" gridSize="10" guides="1" tooltips="1" connect="1" arrows="1" fold="1" page="1" pageScale="1" pageWidth="827" pageHeight="1169" math="0" shadow="0">
      <root>
        <mxCell id="0" />
        <mxCell id="1" parent="0" />
        <mxCell id="k7d0v9CwgHbeBsW23cDr-24" value="线上&amp;nbsp; &amp;nbsp; &amp;nbsp; &amp;nbsp; &amp;nbsp; &amp;nbsp; &amp;nbsp; &amp;nbsp; &amp;nbsp; &amp;nbsp; &amp;nbsp; &amp;nbsp; &amp;nbsp; &amp;nbsp; &amp;nbsp; &amp;nbsp; &amp;nbsp; &amp;nbsp; &amp;nbsp;&lt;br&gt;&lt;br&gt;&lt;br&gt;&lt;br&gt;&lt;br&gt;&lt;br&gt;&lt;br&gt;&lt;br&gt;&lt;br&gt;&lt;br&gt;&lt;br&gt;&lt;br&gt;&lt;br&gt;&lt;br&gt;&lt;br&gt;&lt;br&gt;&lt;br&gt;&lt;br&gt;&lt;br&gt;&lt;br&gt;&lt;br&gt;&lt;br&gt;&lt;br&gt;&lt;br&gt;" style="rounded=0;whiteSpace=wrap;html=1;dashed=1;dashPattern=1 4;" vertex="1" parent="1">
          <mxGeometry x="241" y="110" width="200" height="620" as="geometry" />
        </mxCell>
        <mxCell id="k7d0v9CwgHbeBsW23cDr-23" value="离线&lt;br&gt;&lt;br&gt;&lt;br&gt;&lt;br&gt;&lt;br&gt;&lt;br&gt;&lt;br&gt;&lt;br&gt;&lt;br&gt;&lt;br&gt;&lt;br&gt;&lt;br&gt;&lt;br&gt;&lt;br&gt;&lt;br&gt;&lt;br&gt;&lt;br&gt;&lt;br&gt;&lt;br&gt;&lt;br&gt;&lt;br&gt;&lt;br&gt;&lt;br&gt;&lt;br&gt;&lt;br&gt;" style="rounded=0;whiteSpace=wrap;html=1;dashed=1;dashPattern=1 4;" vertex="1" parent="1">
          <mxGeometry x="450" y="170" width="270" height="400" as="geometry" />
        </mxCell>
        <mxCell id="k7d0v9CwgHbeBsW23cDr-12" style="edgeStyle=orthogonalEdgeStyle;rounded=0;orthogonalLoop=1;jettySize=auto;html=1;exitX=0.5;exitY=1;exitDx=0;exitDy=0;entryX=0.5;entryY=0;entryDx=0;entryDy=0;" edge="1" parent="1" source="k7d0v9CwgHbeBsW23cDr-1" target="k7d0v9CwgHbeBsW23cDr-11">
          <mxGeometry relative="1" as="geometry" />
        </mxCell>
        <mxCell id="k7d0v9CwgHbeBsW23cDr-1" value="query" style="rounded=1;whiteSpace=wrap;html=1;" vertex="1" parent="1">
          <mxGeometry x="294" y="140" width="120" height="60" as="geometry" />
        </mxCell>
        <mxCell id="k7d0v9CwgHbeBsW23cDr-6" style="edgeStyle=orthogonalEdgeStyle;rounded=0;orthogonalLoop=1;jettySize=auto;html=1;exitX=0.5;exitY=1;exitDx=0;exitDy=0;" edge="1" parent="1" source="k7d0v9CwgHbeBsW23cDr-2" target="k7d0v9CwgHbeBsW23cDr-5">
          <mxGeometry relative="1" as="geometry" />
        </mxCell>
        <mxCell id="k7d0v9CwgHbeBsW23cDr-2" value="规则挖掘时效性query" style="rounded=0;whiteSpace=wrap;html=1;" vertex="1" parent="1">
          <mxGeometry x="500" y="245" width="120" height="60" as="geometry" />
        </mxCell>
        <mxCell id="k7d0v9CwgHbeBsW23cDr-13" style="edgeStyle=orthogonalEdgeStyle;rounded=0;orthogonalLoop=1;jettySize=auto;html=1;exitX=0;exitY=0.5;exitDx=0;exitDy=0;exitPerimeter=0;entryX=1;entryY=0.5;entryDx=0;entryDy=0;" edge="1" parent="1" source="k7d0v9CwgHbeBsW23cDr-3" target="k7d0v9CwgHbeBsW23cDr-11">
          <mxGeometry relative="1" as="geometry" />
        </mxCell>
        <mxCell id="k7d0v9CwgHbeBsW23cDr-18" value="定时更新" style="edgeStyle=orthogonalEdgeStyle;rounded=0;orthogonalLoop=1;jettySize=auto;html=1;exitX=1;exitY=0.5;exitDx=0;exitDy=0;exitPerimeter=0;entryX=1;entryY=0.5;entryDx=0;entryDy=0;" edge="1" parent="1" source="k7d0v9CwgHbeBsW23cDr-3" target="k7d0v9CwgHbeBsW23cDr-2">
          <mxGeometry relative="1" as="geometry">
            <Array as="points">
              <mxPoint x="618" y="480" />
              <mxPoint x="680" y="480" />
              <mxPoint x="680" y="275" />
            </Array>
          </mxGeometry>
        </mxCell>
        <mxCell id="k7d0v9CwgHbeBsW23cDr-3" value="时效性词库" style="shape=cylinder3;whiteSpace=wrap;html=1;boundedLbl=1;backgroundOutline=1;size=15;" vertex="1" parent="1">
          <mxGeometry x="502.5" y="442.5" width="115" height="70" as="geometry" />
        </mxCell>
        <mxCell id="k7d0v9CwgHbeBsW23cDr-7" style="edgeStyle=orthogonalEdgeStyle;rounded=0;orthogonalLoop=1;jettySize=auto;html=1;exitX=0.5;exitY=1;exitDx=0;exitDy=0;entryX=0.5;entryY=0;entryDx=0;entryDy=0;entryPerimeter=0;" edge="1" parent="1" source="k7d0v9CwgHbeBsW23cDr-5" target="k7d0v9CwgHbeBsW23cDr-3">
          <mxGeometry relative="1" as="geometry" />
        </mxCell>
        <mxCell id="k7d0v9CwgHbeBsW23cDr-8" value="更新入库" style="edgeLabel;html=1;align=center;verticalAlign=middle;resizable=0;points=[];" vertex="1" connectable="0" parent="k7d0v9CwgHbeBsW23cDr-7">
          <mxGeometry x="-0.5529" y="-2" relative="1" as="geometry">
            <mxPoint x="2" y="9" as="offset" />
          </mxGeometry>
        </mxCell>
        <mxCell id="k7d0v9CwgHbeBsW23cDr-5" value="定义状态" style="rounded=0;whiteSpace=wrap;html=1;" vertex="1" parent="1">
          <mxGeometry x="500" y="335" width="120" height="60" as="geometry" />
        </mxCell>
        <mxCell id="k7d0v9CwgHbeBsW23cDr-19" style="edgeStyle=orthogonalEdgeStyle;rounded=0;orthogonalLoop=1;jettySize=auto;html=1;entryX=0.5;entryY=0;entryDx=0;entryDy=0;" edge="1" parent="1" source="k7d0v9CwgHbeBsW23cDr-11" target="k7d0v9CwgHbeBsW23cDr-14">
          <mxGeometry relative="1" as="geometry" />
        </mxCell>
        <mxCell id="k7d0v9CwgHbeBsW23cDr-11" value="获取状态" style="rounded=0;whiteSpace=wrap;html=1;" vertex="1" parent="1">
          <mxGeometry x="294" y="245" width="120" height="55" as="geometry" />
        </mxCell>
        <mxCell id="k7d0v9CwgHbeBsW23cDr-20" style="edgeStyle=orthogonalEdgeStyle;rounded=0;orthogonalLoop=1;jettySize=auto;html=1;entryX=0.5;entryY=0;entryDx=0;entryDy=0;" edge="1" parent="1" source="k7d0v9CwgHbeBsW23cDr-14" target="k7d0v9CwgHbeBsW23cDr-15">
          <mxGeometry relative="1" as="geometry" />
        </mxCell>
        <mxCell id="k7d0v9CwgHbeBsW23cDr-14" value="召回笔记" style="rounded=0;whiteSpace=wrap;html=1;" vertex="1" parent="1">
          <mxGeometry x="294" y="330" width="120" height="60" as="geometry" />
        </mxCell>
        <mxCell id="k7d0v9CwgHbeBsW23cDr-21" style="edgeStyle=orthogonalEdgeStyle;rounded=0;orthogonalLoop=1;jettySize=auto;html=1;exitX=0.5;exitY=1;exitDx=0;exitDy=0;entryX=0.5;entryY=0;entryDx=0;entryDy=0;" edge="1" parent="1" source="k7d0v9CwgHbeBsW23cDr-15" target="k7d0v9CwgHbeBsW23cDr-16">
          <mxGeometry relative="1" as="geometry" />
        </mxCell>
        <mxCell id="k7d0v9CwgHbeBsW23cDr-15" value="postrank调整权重" style="rounded=0;whiteSpace=wrap;html=1;" vertex="1" parent="1">
          <mxGeometry x="294" y="430" width="120" height="60" as="geometry" />
        </mxCell>
        <mxCell id="k7d0v9CwgHbeBsW23cDr-22" style="edgeStyle=orthogonalEdgeStyle;rounded=0;orthogonalLoop=1;jettySize=auto;html=1;exitX=0.5;exitY=1;exitDx=0;exitDy=0;entryX=0.5;entryY=0;entryDx=0;entryDy=0;" edge="1" parent="1" source="k7d0v9CwgHbeBsW23cDr-16" target="k7d0v9CwgHbeBsW23cDr-17">
          <mxGeometry relative="1" as="geometry" />
        </mxCell>
        <mxCell id="k7d0v9CwgHbeBsW23cDr-16" value="透出" style="rounded=0;whiteSpace=wrap;html=1;" vertex="1" parent="1">
          <mxGeometry x="294" y="525" width="120" height="60" as="geometry" />
        </mxCell>
        <mxCell id="k7d0v9CwgHbeBsW23cDr-17" value="结束" style="rounded=1;whiteSpace=wrap;html=1;" vertex="1" parent="1">
          <mxGeometry x="294" y="620" width="120" height="60" as="geometry" />
        </mxCell>
      </root>
    </mxGraphModel>
  </diagram>
</mxfile>
